<?xml version="1.0" encoding="iso-8859-1"?>
<!-- Uploaded to: SVG Repo, www.svgrepo.com, Generator: SVG Repo Mixer Tools -->
<!DOCTYPE svg PUBLIC "-//W3C//DTD SVG 1.1//EN" "http://www.w3.org/Graphics/SVG/1.1/DTD/svg11.dtd">
<svg fill="white" height="30px" width="30px" version="1.1" id="Capa_1" xmlns="http://www.w3.org/2000/svg" xmlns:xlink="http://www.w3.org/1999/xlink" 
	 viewBox="0 0 457.013 457.013" xml:space="preserve">
<g id="XMLID_105_">
	<path id="XMLID_231_" d="M114.077,436.005c0,11.602,9.406,21.008,21.008,21.008c11.602,0,21.008-9.406,21.008-21.008V314.362
		h-42.016V436.005z"/>
	<path id="XMLID_817_" d="M165.163,436.005c0,11.602,9.406,21.008,21.008,21.008c11.602,0,21.008-9.406,21.008-21.008V314.362
		h-42.016V436.005z"/>
	<path id="XMLID_828_" d="M160.624,88.75c19.454,0,35.329-15.311,36.239-34.54h-72.478C125.294,73.438,141.17,88.75,160.624,88.75z"
		/>
	<path id="XMLID_831_" d="M191.765,4.506C191.319,1.903,189.062,0,186.422,0h-50.737c-2.584,0-4.809,1.824-5.316,4.358
		l-6.028,30.138h72.566L191.765,4.506z"/>
	<path id="XMLID_836_" d="M399.891,161.84c0-5.444-4.413-9.856-9.856-9.856h-9.856V74.851c0-4.973-1.567-9.819-4.478-13.85
		l-6.199-8.584V25.149c0-5.444-4.413-9.856-9.856-9.856c-5.443,0-9.856,4.413-9.856,9.856v27.269l-6.199,8.584
		c-2.911,4.031-4.478,8.877-4.478,13.85v77.133h-24.805c8.054-3.773,13.634-11.947,13.634-21.428v-23.873
		c0-2.51-2.035-4.544-4.544-4.544h-38.222c-2.51,0-4.544,2.035-4.544,4.544v23.873c0,9.481,5.581,17.656,13.634,21.428h-19.219
		c-5.443,0-9.856,4.413-9.856,9.856c0,4.811,3.449,8.811,8.007,9.677l-18.842,2.714c0,0-3.941-25.62-5.25-34.16
		c-3.464-22.601-19.158-39.756-41.396-39.756h-10.465c-3.464,5.951-24.838,42.672-27.94,48l-3.322-23.881l6.907-16.352
		c0.71-1.681-0.527-3.543-2.35-3.543h-19.796c-1.824,0-3.059,1.864-2.35,3.543l6.907,16.352l-3.329,23.93
		c-10.406-17.877-23.38-40.167-27.968-48.05h-10.465c-22.36,0-40.71,17.897-41.409,40.119l-14.888,127.78
		c-1.119,9.604,5.759,18.296,15.363,19.415c9.586,1.12,18.295-5.745,19.415-15.363c13.98-119.953,14.745-129.16,15.103-130.553
		c0.334-1.3,1.606-2.129,2.93-1.91c1.324,0.219,2.259,1.413,2.158,2.751l-11.173,148.664c-0.078,1.039,0.28,2.063,0.989,2.827
		c0.709,0.764,1.703,1.198,2.745,1.198h111.324c1.042,0,2.037-0.434,2.745-1.198c0.709-0.764,1.067-1.788,0.989-2.827l-11.19-148.9
		c-0.111-1.483,0.972-2.788,2.451-2.952c1.479-0.163,2.822,0.874,3.036,2.347c0-0.001,0,0,0,0c0.264,1.818,1.088,8.388,8.257,54.977
		c1.458,9.49,10.287,16.038,19.799,14.669l64.272-9.257c9.57-1.378,16.21-10.253,14.833-19.823
		c-0.614-4.259-2.717-7.932-5.701-10.583h74.45C395.478,171.696,399.891,167.283,399.891,161.84z M160.433,170.434
		c3.96,0,7.17,3.21,7.17,7.17c0,3.96-3.21,7.17-7.17,7.17c-3.96,0-7.17-3.21-7.17-7.17
		C153.263,173.644,156.473,170.434,160.433,170.434z M160.433,264.119c-3.96,0-7.17-3.21-7.17-7.17c0-3.96,3.21-7.17,7.17-7.17
		c3.96,0,7.17,3.21,7.17,7.17C167.603,260.909,164.393,264.119,160.433,264.119z M160.433,224.446c-3.96,0-7.17-3.21-7.17-7.17
		c0-3.96,3.21-7.17,7.17-7.17c3.96,0,7.17,3.21,7.17,7.17C167.603,221.236,164.393,224.446,160.433,224.446z"/>
</g>
</svg>